<mxfile host="app.diagrams.net" modified="2021-01-04T13:56:58.985Z" agent="5.0 (X11)" etag="W7zguh7bVeq3HdfOdNt1" version="14.1.8" type="github">
  <diagram id="R2lEEEUBdFMjLlhIrx00" name="Page-1">
    <mxGraphModel dx="2272" dy="1904" grid="1" gridSize="10" guides="1" tooltips="1" connect="1" arrows="1" fold="1" page="1" pageScale="1" pageWidth="850" pageHeight="1100" math="0" shadow="0" extFonts="Permanent Marker^https://fonts.googleapis.com/css?family=Permanent+Marker">
      <root>
        <mxCell id="0" />
        <mxCell id="1" parent="0" />
        <mxCell id="uFh9z6F1MRZXEkdcedLP-1" value="&lt;div style=&quot;box-sizing: border-box ; width: 100% ; background: #e4e4e4 ; padding: 2px&quot;&gt;&lt;b&gt;User&lt;/b&gt;&lt;br&gt;&lt;/div&gt;&lt;table style=&quot;width: 100% ; font-size: 1em&quot; cellspacing=&quot;0&quot; cellpadding=&quot;2&quot;&gt;&lt;tbody&gt;&lt;tr&gt;&lt;td&gt;PK&lt;/td&gt;&lt;td&gt;&lt;b&gt;id&lt;/b&gt;: ObjectId&lt;br&gt;&lt;/td&gt;&lt;/tr&gt;&lt;tr&gt;&lt;td&gt;&lt;br&gt;&lt;/td&gt;&lt;td&gt;fullname: String&lt;br&gt;birth: Date&lt;br&gt;email: String&lt;br&gt;address:String&lt;br&gt;avatar: String&lt;br&gt;point: Int32&lt;br&gt;password: String&lt;br&gt;token: Array&amp;lt;String&amp;gt;&lt;br&gt;firebaseToken: Array&amp;lt;String&amp;gt;&lt;br&gt;role: Array&amp;lt;String&amp;gt;&lt;br&gt;createdAt: Date&lt;br&gt;modifiedAt: Date&lt;br&gt;&lt;br&gt;&lt;br&gt;&lt;/td&gt;&lt;/tr&gt;&lt;tr&gt;&lt;td&gt;&lt;br&gt;&lt;/td&gt;&lt;td&gt;&lt;br&gt;&lt;/td&gt;&lt;/tr&gt;&lt;/tbody&gt;&lt;/table&gt;" style="verticalAlign=top;align=left;overflow=fill;html=1;" parent="1" vertex="1">
          <mxGeometry x="-680" y="110" width="180" height="220" as="geometry" />
        </mxCell>
        <mxCell id="uFh9z6F1MRZXEkdcedLP-2" value="&lt;div style=&quot;box-sizing: border-box ; width: 100% ; background: #e4e4e4 ; padding: 2px&quot;&gt;&lt;b&gt;CoWorking&lt;/b&gt;&lt;/div&gt;&lt;table style=&quot;width: 100% ; font-size: 1em&quot; cellspacing=&quot;0&quot; cellpadding=&quot;2&quot;&gt;&lt;tbody&gt;&lt;tr&gt;&lt;td&gt;PK&lt;/td&gt;&lt;td&gt;&lt;b&gt;id&lt;/b&gt;: ObjectId&lt;br&gt;&lt;/td&gt;&lt;/tr&gt;&lt;tr&gt;&lt;td&gt;FK1&lt;/td&gt;&lt;td&gt;&lt;b&gt;&lt;i&gt;userId&lt;/i&gt;&lt;/b&gt;: ObjectId&lt;br&gt;&lt;/td&gt;&lt;/tr&gt;&lt;tr&gt;&lt;td&gt;&lt;br&gt;&lt;/td&gt;&lt;td&gt;name: String&lt;br&gt;about: String&lt;br&gt;phone: String&lt;br&gt;photo: Array&amp;lt;String&amp;gt;&lt;br&gt;address: String&lt;br&gt;location: Array&amp;lt;Double&amp;gt;&lt;br&gt;starRating: Array&amp;lt;Int32&amp;gt;&lt;br&gt;totalRating: Double&lt;br&gt;createdAt: Date&lt;br&gt;modifiedAt: Date&lt;br&gt;&lt;br&gt;&lt;/td&gt;&lt;/tr&gt;&lt;/tbody&gt;&lt;/table&gt;" style="verticalAlign=top;align=left;overflow=fill;html=1;fillColor=#ffffff;gradientColor=none;" parent="1" vertex="1">
          <mxGeometry x="-395" y="115" width="180" height="210" as="geometry" />
        </mxCell>
        <mxCell id="uFh9z6F1MRZXEkdcedLP-3" value="&lt;div style=&quot;box-sizing: border-box ; width: 100% ; background: #e4e4e4 ; padding: 2px&quot;&gt;&lt;b&gt;Room&lt;/b&gt;&lt;/div&gt;&lt;table style=&quot;width: 100% ; font-size: 1em&quot; cellspacing=&quot;0&quot; cellpadding=&quot;2&quot;&gt;&lt;tbody&gt;&lt;tr&gt;&lt;td&gt;PK&lt;/td&gt;&lt;td&gt;&lt;b&gt;id: &lt;/b&gt;ObjectId&lt;br&gt;&lt;b&gt;&lt;/b&gt;&lt;/td&gt;&lt;/tr&gt;&lt;tr&gt;&lt;td&gt;FK1&lt;/td&gt;&lt;td&gt;&lt;i&gt;&lt;b&gt;coWorkingId&lt;/b&gt;&lt;/i&gt;: ObjectId&lt;br&gt;&lt;/td&gt;&lt;/tr&gt;&lt;tr&gt;&lt;td&gt;&lt;br&gt;&lt;/td&gt;&lt;td&gt;name: String&lt;br&gt;about: String&lt;br&gt;price: Int32&lt;br&gt;maxPerson: Int32&lt;br&gt;photo: Array&amp;lt;String&amp;gt;&lt;br&gt;createdAt: Date&lt;br&gt;modifiedAt: Date&lt;br&gt;&lt;br&gt;&lt;/td&gt;&lt;/tr&gt;&lt;/tbody&gt;&lt;/table&gt;" style="verticalAlign=top;align=left;overflow=fill;html=1;fillColor=#ffffff;gradientColor=none;" parent="1" vertex="1">
          <mxGeometry x="-130" y="115" width="190" height="210" as="geometry" />
        </mxCell>
        <mxCell id="uFh9z6F1MRZXEkdcedLP-16" value="" style="edgeStyle=entityRelationEdgeStyle;fontSize=12;html=1;endArrow=ERoneToMany;" parent="1" source="uFh9z6F1MRZXEkdcedLP-1" target="uFh9z6F1MRZXEkdcedLP-2" edge="1">
          <mxGeometry width="100" height="100" relative="1" as="geometry">
            <mxPoint x="-360" y="470" as="sourcePoint" />
            <mxPoint x="-260" y="370" as="targetPoint" />
          </mxGeometry>
        </mxCell>
        <mxCell id="uFh9z6F1MRZXEkdcedLP-17" value="" style="edgeStyle=entityRelationEdgeStyle;fontSize=12;html=1;endArrow=ERmany;" parent="1" source="uFh9z6F1MRZXEkdcedLP-2" target="uFh9z6F1MRZXEkdcedLP-3" edge="1">
          <mxGeometry width="100" height="100" relative="1" as="geometry">
            <mxPoint x="-360" y="470" as="sourcePoint" />
            <mxPoint x="-260" y="370" as="targetPoint" />
          </mxGeometry>
        </mxCell>
        <mxCell id="uFh9z6F1MRZXEkdcedLP-31" value="&lt;div style=&quot;box-sizing: border-box ; width: 100% ; background: #e4e4e4 ; padding: 2px&quot;&gt;&lt;b&gt;Service&lt;/b&gt;&lt;/div&gt;&lt;table style=&quot;width: 100% ; font-size: 1em&quot; cellspacing=&quot;0&quot; cellpadding=&quot;2&quot;&gt;&lt;tbody&gt;&lt;tr&gt;&lt;td&gt;PK&lt;/td&gt;&lt;td&gt;&lt;b&gt;id&lt;/b&gt;: ObjectId&lt;br&gt;&lt;/td&gt;&lt;/tr&gt;&lt;tr&gt;&lt;td&gt;FK1&lt;/td&gt;&lt;td&gt;&lt;i&gt;&lt;b&gt;roomId&lt;/b&gt;&lt;/i&gt;: String&lt;br&gt;&lt;/td&gt;&lt;/tr&gt;&lt;tr&gt;&lt;td&gt;&lt;br&gt;&lt;/td&gt;&lt;td&gt;wifi: Boolean&lt;br&gt;conversionCall: Boolean&lt;br&gt;drink: Boolean&lt;br&gt;printer: Boolean&lt;br&gt;airCondition: Boolean&lt;br&gt;other: Array&amp;lt;String&amp;gt;&lt;br&gt;&lt;br&gt;&lt;/td&gt;&lt;/tr&gt;&lt;/tbody&gt;&lt;/table&gt;" style="verticalAlign=top;align=left;overflow=fill;html=1;" parent="1" vertex="1">
          <mxGeometry x="150" y="145" width="190" height="150" as="geometry" />
        </mxCell>
        <mxCell id="uFh9z6F1MRZXEkdcedLP-32" value="" style="edgeStyle=entityRelationEdgeStyle;fontSize=12;html=1;endArrow=ERone;endFill=1;" parent="1" source="uFh9z6F1MRZXEkdcedLP-3" target="uFh9z6F1MRZXEkdcedLP-31" edge="1">
          <mxGeometry width="100" height="100" relative="1" as="geometry">
            <mxPoint x="-90" y="450" as="sourcePoint" />
            <mxPoint x="200" y="340" as="targetPoint" />
          </mxGeometry>
        </mxCell>
        <mxCell id="uFh9z6F1MRZXEkdcedLP-33" value="&lt;div style=&quot;box-sizing: border-box ; width: 100% ; background: #e4e4e4 ; padding: 2px&quot;&gt;&lt;b&gt;Review&lt;/b&gt;&lt;/div&gt;&lt;table style=&quot;width: 100% ; font-size: 1em&quot; cellspacing=&quot;0&quot; cellpadding=&quot;2&quot;&gt;&lt;tbody&gt;&lt;tr&gt;&lt;td&gt;PK&lt;/td&gt;&lt;td&gt;&lt;b&gt;id&lt;/b&gt;: ObjectId&lt;br&gt;&lt;/td&gt;&lt;/tr&gt;&lt;tr&gt;&lt;td&gt;FK1&lt;/td&gt;&lt;td&gt;&lt;i&gt;&lt;b&gt;userId&lt;/b&gt;&lt;/i&gt;: ObjectId&lt;br&gt;&lt;/td&gt;&lt;/tr&gt;&lt;tr&gt;&lt;td&gt;FK2&lt;br&gt;&lt;/td&gt;&lt;td&gt;&lt;i&gt;&lt;b&gt;coWorkingId&lt;/b&gt;&lt;/i&gt;: ObjectId&lt;br&gt;&lt;/td&gt;&lt;/tr&gt;&lt;tr&gt;&lt;td&gt;&lt;br&gt;&lt;/td&gt;&lt;td&gt;content: String&lt;br&gt;star: Int32&lt;br&gt;createdAt: Date&lt;br&gt;modifiedAt: Date&lt;br&gt;&lt;br&gt;&lt;/td&gt;&lt;/tr&gt;&lt;/tbody&gt;&lt;/table&gt;" style="verticalAlign=top;align=left;overflow=fill;html=1;" parent="1" vertex="1">
          <mxGeometry x="-550" y="-50" width="180" height="150" as="geometry" />
        </mxCell>
        <mxCell id="uFh9z6F1MRZXEkdcedLP-34" value="" style="edgeStyle=entityRelationEdgeStyle;fontSize=12;html=1;endArrow=ERoneToMany;entryX=0;entryY=0.5;entryDx=0;entryDy=0;exitX=0.378;exitY=-0.009;exitDx=0;exitDy=0;exitPerimeter=0;" parent="1" source="uFh9z6F1MRZXEkdcedLP-1" target="uFh9z6F1MRZXEkdcedLP-33" edge="1">
          <mxGeometry width="100" height="100" relative="1" as="geometry">
            <mxPoint x="-580" y="130" as="sourcePoint" />
            <mxPoint x="-480" y="30" as="targetPoint" />
          </mxGeometry>
        </mxCell>
        <mxCell id="uFh9z6F1MRZXEkdcedLP-36" value="" style="edgeStyle=entityRelationEdgeStyle;fontSize=12;html=1;endArrow=ERoneToMany;exitX=0.75;exitY=0;exitDx=0;exitDy=0;" parent="1" source="uFh9z6F1MRZXEkdcedLP-2" target="uFh9z6F1MRZXEkdcedLP-33" edge="1">
          <mxGeometry width="100" height="100" relative="1" as="geometry">
            <mxPoint x="-200" y="180" as="sourcePoint" />
            <mxPoint x="-100" y="80" as="targetPoint" />
          </mxGeometry>
        </mxCell>
        <mxCell id="uFh9z6F1MRZXEkdcedLP-37" value="&lt;div style=&quot;box-sizing: border-box ; width: 100% ; background: #e4e4e4 ; padding: 2px&quot;&gt;&lt;b&gt;Booking&lt;/b&gt;&lt;/div&gt;&lt;table style=&quot;width: 100% ; font-size: 1em&quot; cellspacing=&quot;0&quot; cellpadding=&quot;2&quot;&gt;&lt;tbody&gt;&lt;tr&gt;&lt;td&gt;PK&lt;/td&gt;&lt;td&gt;&lt;b&gt;id&lt;/b&gt;: ObjectId&lt;br&gt;&lt;/td&gt;&lt;/tr&gt;&lt;tr&gt;&lt;td&gt;FK1&lt;/td&gt;&lt;td&gt;&lt;i&gt;&lt;b&gt;userId&lt;/b&gt;&lt;/i&gt;: ObjectId&lt;br&gt;&lt;/td&gt;&lt;/tr&gt;&lt;tr&gt;&lt;td&gt;FK2&lt;br&gt;&lt;/td&gt;&lt;td&gt;&lt;i&gt;&lt;b&gt;roomId&lt;/b&gt;&lt;/i&gt;: ObjectId&lt;br&gt;&lt;/td&gt;&lt;/tr&gt;&lt;tr&gt;&lt;td&gt;&lt;br&gt;&lt;/td&gt;&lt;td&gt;description: String&lt;br&gt;startTime: Date&lt;br&gt;endTime: Date&lt;br&gt;duration: Int32&lt;br&gt;numPerson: Int32&lt;br&gt;status: String&lt;br&gt;price: Int32&lt;br&gt;checkIn: Boolean &lt;br&gt;checkOut: Boolean&lt;br&gt;usedPoint: Int32&lt;br&gt;discount: Int32&lt;br&gt;bookingReference: String&lt;br&gt;createdAt: Date&lt;br&gt;modifiedAt: Date&lt;br&gt;&lt;br&gt;&lt;/td&gt;&lt;/tr&gt;&lt;/tbody&gt;&lt;/table&gt;" style="verticalAlign=top;align=left;overflow=fill;html=1;" parent="1" vertex="1">
          <mxGeometry x="-395" y="340" width="180" height="280" as="geometry" />
        </mxCell>
        <mxCell id="uFh9z6F1MRZXEkdcedLP-38" value="" style="edgeStyle=entityRelationEdgeStyle;fontSize=12;html=1;endArrow=ERoneToMany;exitX=0.5;exitY=1;exitDx=0;exitDy=0;entryX=0;entryY=0.5;entryDx=0;entryDy=0;" parent="1" source="uFh9z6F1MRZXEkdcedLP-1" target="uFh9z6F1MRZXEkdcedLP-37" edge="1">
          <mxGeometry width="100" height="100" relative="1" as="geometry">
            <mxPoint x="-200" y="340" as="sourcePoint" />
            <mxPoint x="-100" y="240" as="targetPoint" />
          </mxGeometry>
        </mxCell>
        <mxCell id="uFh9z6F1MRZXEkdcedLP-39" value="" style="edgeStyle=entityRelationEdgeStyle;fontSize=12;html=1;endArrow=ERoneToMany;exitX=0.5;exitY=1;exitDx=0;exitDy=0;" parent="1" source="uFh9z6F1MRZXEkdcedLP-3" target="uFh9z6F1MRZXEkdcedLP-37" edge="1">
          <mxGeometry width="100" height="100" relative="1" as="geometry">
            <mxPoint x="-200" y="340" as="sourcePoint" />
            <mxPoint x="-100" y="240" as="targetPoint" />
          </mxGeometry>
        </mxCell>
        <mxCell id="uFh9z6F1MRZXEkdcedLP-40" value="&lt;div style=&quot;box-sizing: border-box ; width: 100% ; background: #e4e4e4 ; padding: 2px&quot;&gt;&lt;b&gt;Transaction&lt;/b&gt;&lt;/div&gt;&lt;table style=&quot;width: 100% ; font-size: 1em&quot; cellspacing=&quot;0&quot; cellpadding=&quot;2&quot;&gt;&lt;tbody&gt;&lt;tr&gt;&lt;td&gt;PK&lt;/td&gt;&lt;td&gt;&lt;b&gt;id&lt;/b&gt;: ObjectId&lt;br&gt;&lt;/td&gt;&lt;/tr&gt;&lt;tr&gt;&lt;td&gt;FK1&lt;/td&gt;&lt;td&gt;&lt;i&gt;&lt;b&gt;bookingId&lt;/b&gt;&lt;/i&gt;: ObjectId&lt;br&gt;&lt;/td&gt;&lt;/tr&gt;&lt;tr&gt;&lt;td&gt;&lt;br&gt;&lt;/td&gt;&lt;td&gt;price: Int32&lt;br&gt;earnPoint: Int32&lt;br&gt;payment: Boolean&lt;br&gt;createdAt: Date&lt;br&gt;modifiedAt: Date&lt;br&gt;&lt;br&gt;&lt;/td&gt;&lt;/tr&gt;&lt;/tbody&gt;&lt;/table&gt;" style="verticalAlign=top;align=left;overflow=fill;html=1;" parent="1" vertex="1">
          <mxGeometry x="-110" y="430" width="180" height="140" as="geometry" />
        </mxCell>
        <mxCell id="uFh9z6F1MRZXEkdcedLP-41" value="" style="edgeStyle=entityRelationEdgeStyle;fontSize=12;html=1;endArrow=ERone;endFill=1;exitX=0.994;exitY=0.571;exitDx=0;exitDy=0;exitPerimeter=0;" parent="1" source="uFh9z6F1MRZXEkdcedLP-37" target="uFh9z6F1MRZXEkdcedLP-40" edge="1">
          <mxGeometry width="100" height="100" relative="1" as="geometry">
            <mxPoint x="-207" y="540" as="sourcePoint" />
            <mxPoint x="-100" y="230" as="targetPoint" />
          </mxGeometry>
        </mxCell>
        <mxCell id="uFh9z6F1MRZXEkdcedLP-42" value="&lt;div style=&quot;box-sizing: border-box ; width: 100% ; background: #e4e4e4 ; padding: 2px&quot;&gt;&lt;b&gt;ExchangePoint&lt;/b&gt;&lt;br&gt;&lt;/div&gt;&lt;table style=&quot;width: 100% ; font-size: 1em&quot; cellspacing=&quot;0&quot; cellpadding=&quot;2&quot;&gt;&lt;tbody&gt;&lt;tr&gt;&lt;td&gt;PK&lt;/td&gt;&lt;td&gt;&lt;b&gt;id&lt;/b&gt;: ObjectId&lt;br&gt;&lt;/td&gt;&lt;/tr&gt;&lt;tr&gt;&lt;td&gt;FK1&lt;/td&gt;&lt;td&gt;&lt;i&gt;&lt;b&gt;userId&lt;/b&gt;&lt;/i&gt;: ObjectId&lt;br&gt;&lt;/td&gt;&lt;/tr&gt;&lt;tr&gt;&lt;td&gt;FK2&lt;br&gt;&lt;/td&gt;&lt;td&gt;&lt;i&gt;&lt;b&gt;transactionId&lt;/b&gt;&lt;/i&gt;: ObjectId&lt;br&gt;&lt;/td&gt;&lt;/tr&gt;&lt;tr&gt;&lt;td&gt;&lt;br&gt;&lt;/td&gt;&lt;td&gt;type: String&lt;br&gt;point: Int32&lt;br&gt;createdAt: Date&lt;br&gt;&lt;br&gt;&lt;br&gt;&lt;/td&gt;&lt;/tr&gt;&lt;/tbody&gt;&lt;/table&gt;" style="verticalAlign=top;align=left;overflow=fill;html=1;" parent="1" vertex="1">
          <mxGeometry x="-395" y="640" width="180" height="120" as="geometry" />
        </mxCell>
        <mxCell id="uFh9z6F1MRZXEkdcedLP-45" value="" style="edgeStyle=entityRelationEdgeStyle;fontSize=12;html=1;endArrow=ERmany;exitX=0.5;exitY=1;exitDx=0;exitDy=0;" parent="1" source="uFh9z6F1MRZXEkdcedLP-1" target="uFh9z6F1MRZXEkdcedLP-42" edge="1">
          <mxGeometry width="100" height="100" relative="1" as="geometry">
            <mxPoint x="-840" y="300" as="sourcePoint" />
            <mxPoint x="-700" y="40" as="targetPoint" />
          </mxGeometry>
        </mxCell>
        <mxCell id="uFh9z6F1MRZXEkdcedLP-47" value="" style="edgeStyle=entityRelationEdgeStyle;fontSize=12;html=1;endArrow=ERoneToMany;exitX=0.5;exitY=1;exitDx=0;exitDy=0;" parent="1" source="uFh9z6F1MRZXEkdcedLP-40" target="uFh9z6F1MRZXEkdcedLP-42" edge="1">
          <mxGeometry width="100" height="100" relative="1" as="geometry">
            <mxPoint x="-200" y="450" as="sourcePoint" />
            <mxPoint x="-100" y="350" as="targetPoint" />
          </mxGeometry>
        </mxCell>
      </root>
    </mxGraphModel>
  </diagram>
</mxfile>
